<svg xmlns="http://www.w3.org/2000/svg" width="16" height="16" viewBox="0 0 16 16">
  <g id="Group_23258" data-name="Group 23258" transform="translate(-672 -3616)">
    <rect id="Rectangle_10683" data-name="Rectangle 10683" width="16" height="16" transform="translate(672 3616)" fill="none"/>
    <path id="Path_24336" data-name="Path 24336" d="M3.871,4.616V3.237A4.756,4.756,0,0,1,.6,1.136L1.787-.227A4.481,4.481,0,0,0,3.871,1.6V-1.847q-2.71-.786-2.71-3.239a2.728,2.728,0,0,1,.433-1.507,3.3,3.3,0,0,1,1.195-1.1A4.212,4.212,0,0,1,4.513-8.2V-9.384H6.068v1.251A3.814,3.814,0,0,1,8.827-6.257l-1.219,1.2a3.34,3.34,0,0,0-1.54-1.411v3.352A5.122,5.122,0,0,1,8.177-1.935,2.4,2.4,0,0,1,8.923-.179a3.228,3.228,0,0,1-.93,2.4A4.012,4.012,0,0,1,5.427,3.285V4.616Zm-.978-9.75a1.356,1.356,0,0,0,.369.978A2.937,2.937,0,0,0,4.513-3.5V-6.642a2.078,2.078,0,0,0-1.179.505A1.314,1.314,0,0,0,2.893-5.134Zm4.3,5.4A1.435,1.435,0,0,0,6.766-.772a3.1,3.1,0,0,0-1.339-.706V1.729a2.383,2.383,0,0,0,1.259-.481A1.209,1.209,0,0,0,7.191.27Z" transform="translate(675.239 3626.385)" fill="#fff"/>
  </g>
</svg>
