<svg xmlns="http://www.w3.org/2000/svg" width="24" height="24" viewBox="0 0 24 24">
  <g id="Group_23326" data-name="Group 23326" transform="translate(24040 19446)">
    <rect id="Rectangle_10711" data-name="Rectangle 10711" width="24" height="24" transform="translate(-24040 -19446)" fill="none"/>
    <g id="cart_4_" data-name="cart (4)" transform="translate(-24038.104 -19444.5)">
      <g id="Group_23327" data-name="Group 23327">
        <g id="Group_23326-2" data-name="Group 23326" transform="translate(0 0)">
          <path id="Path_24382" data-name="Path 24382" d="M17.576,13.738l1.627-7.9-13.5,3.91.992,3.99Z" fill="#00e5ff"/>
          <path id="Path_24363" data-name="Path 24363" d="M132.6,382.711a2.651,2.651,0,1,0,2.651,2.651A2.654,2.654,0,0,0,132.6,382.711Zm0,3.712a1.061,1.061,0,1,1,1.061-1.061A1.062,1.062,0,0,1,132.6,386.423Z" transform="translate(-125.012 -367.014)"/>
          <path id="Path_24364" data-name="Path 24364" d="M323.946,382.711a2.651,2.651,0,1,0,2.651,2.651A2.654,2.654,0,0,0,323.946,382.711Zm0,3.712a1.061,1.061,0,1,1,1.061-1.061A1.062,1.062,0,0,1,323.946,386.423Z" transform="translate(-308.515 -367.014)"/>
          <path id="Path_24365" data-name="Path 24365" d="M29.73,5.179a.8.8,0,0,0-.623-.3H15.179l-.723-3.654A.8.8,0,0,0,13.819.6L10.637.013a.8.8,0,0,0-.287,1.565L13,2.064l2.334,11.8a.8.8,0,0,0,.78.641H27.251a.8.8,0,0,0,.775-.617l1.856-8.034A.8.8,0,0,0,29.73,5.179Zm-3.111,7.734h-9.85L15.494,6.47H28.107Z" transform="translate(-9.698 0)"/>
        </g>
      </g>
    </g>
  </g>
</svg>
