<svg xmlns="http://www.w3.org/2000/svg" width="24" height="24" viewBox="0 0 24 24">
  <g id="Group_23325" data-name="Group 23325" transform="translate(23947 19651)">
    <rect id="Rectangle_10710" data-name="Rectangle 10710" width="24" height="24" transform="translate(-23947 -19651)" fill="none"/>
    <g id="user_7_" data-name="user (7)" transform="translate(-23945.5 -19649.5)">
      <g id="Group_23325-2" data-name="Group 23325">
        <path id="Path_24362" data-name="Path 24362" d="M17.925,13.575a10.46,10.46,0,0,0-3.99-2.5,6.07,6.07,0,1,0-6.869,0A10.517,10.517,0,0,0,0,21H1.641a8.859,8.859,0,1,1,17.719,0H21A10.432,10.432,0,0,0,17.925,13.575ZM10.5,10.5a4.43,4.43,0,1,1,4.43-4.43A4.435,4.435,0,0,1,10.5,10.5Z" transform="translate(0)"/>
      </g>
    </g>
    <circle id="Ellipse_2061" data-name="Ellipse 2061" cx="3" cy="3" r="3" transform="translate(-23938 -19646.5)" fill="#00e5ff"/>
  </g>
</svg>
