<svg xmlns="http://www.w3.org/2000/svg" width="16" height="16" viewBox="0 0 16 16">
  <g id="Group_23261" data-name="Group 23261" transform="translate(6325 22079)">
    <rect id="Rectangle_10409" data-name="Rectangle 10409" width="16" height="16" transform="translate(-6325 -22079)" fill="none"/>
    <g id="shopping-cart_6_" data-name="shopping-cart (6)" transform="translate(-6324 -22087.285)">
      <g id="Group_22116" data-name="Group 22116" transform="translate(0 9.577)">
        <path id="Path_24073" data-name="Path 24073" d="M11.313,19.236a1.258,1.258,0,0,0,1.213-.945l1.467-5.405a.3.3,0,0,0-.059-.254.352.352,0,0,0-.228-.111H2.83L2.087,9.814a.28.28,0,0,0-.313-.235H0v.593H1.584l.724,2.706,1.467,5.412.039.1.509,1.852a1.441,1.441,0,0,0-.763,1.3v.3h.033a1.415,1.415,0,0,0,1.389,1.141,1.454,1.454,0,0,0,1.461-1.441,1.487,1.487,0,0,0-.293-.848h4a1.487,1.487,0,0,0-.287.848,1.454,1.454,0,0,0,1.461,1.441,1.415,1.415,0,0,0,1.389-1.141h.033v-.3a1.428,1.428,0,0,0-1.415-1.441H4.884l-.248-.926a1.03,1.03,0,0,0,.346.052h6.331Zm-.039,1.448a.854.854,0,0,1,.873.834q0,.016,0,.032a.848.848,0,0,1-.828.848l-.007-.007a.854.854,0,0,1-.039-1.708Zm-6.266,0a.854.854,0,0,1,.841.867.841.841,0,0,1-.834.848H4.982v-.007a.854.854,0,0,1,.026-1.708Z" transform="translate(0 -9.577)" fill="#fff"/>
      </g>
    </g>
  </g>
</svg>
