<svg xmlns="http://www.w3.org/2000/svg" width="24" height="24" viewBox="0 0 24 24">
  <g id="Group_23328" data-name="Group 23328" transform="translate(20928 11454)">
    <rect id="Rectangle_10274" data-name="Rectangle 10274" width="24" height="24" transform="translate(-20928 -11454)" fill="none"/>
    <g id="delivery_1_" data-name="delivery (1)" transform="translate(-20926.5 -11449.279)">
      <path id="Path_24042" data-name="Path 24042" d="M20.3,11.934V7.607S18.859,5.7,18.756,5.7H13.285V.762H10.2L6.514,9.276l3.469,2.658H13.7l.723-1.695L15.943,9.8l1.5.773.748,1.36Z" fill="#00e5ff"/>
      <g id="Group_21746" data-name="Group 21746" transform="translate(13.213 9.265)">
        <g id="Group_21745" data-name="Group 21745">
          <path id="Path_23762" data-name="Path 23762" d="M324.8,304.4a2.647,2.647,0,1,0,2.647,2.647A2.65,2.65,0,0,0,324.8,304.4Zm0,3.971a1.324,1.324,0,1,1,1.323-1.324A1.325,1.325,0,0,1,324.8,308.374Z" transform="translate(-322.151 -304.403)"/>
        </g>
      </g>
      <g id="Group_21748" data-name="Group 21748" transform="translate(4.169 9.265)">
        <g id="Group_21747" data-name="Group 21747">
          <path id="Path_23763" data-name="Path 23763" d="M104.294,304.4a2.647,2.647,0,1,0,2.647,2.647A2.65,2.65,0,0,0,104.294,304.4Zm0,3.971a1.324,1.324,0,1,1,1.324-1.324A1.325,1.325,0,0,1,104.294,308.374Z" transform="translate(-101.647 -304.403)"/>
        </g>
      </g>
      <g id="Group_21750" data-name="Group 21750" transform="translate(13.566 1.324)">
        <g id="Group_21749" data-name="Group 21749">
          <path id="Path_23764" data-name="Path 23764" d="M334.833,111.154a.662.662,0,0,0-.591-.364h-3.485v1.324h3.077l1.8,3.584,1.183-.595Z" transform="translate(-330.756 -110.79)"/>
        </g>
      </g>
      <g id="Group_21752" data-name="Group 21752" transform="translate(8.868 11.272)">
        <g id="Group_21751" data-name="Group 21751">
          <rect id="Rectangle_10273" data-name="Rectangle 10273" width="5.007" height="1.324"/>
        </g>
      </g>
      <g id="Group_21754" data-name="Group 21754" transform="translate(1.875 11.272)">
        <g id="Group_21753" data-name="Group 21753">
          <path id="Path_23765" data-name="Path 23765" d="M48.671,353.345H46.377a.662.662,0,1,0,0,1.323h2.294a.662.662,0,1,0,0-1.323Z" transform="translate(-45.715 -353.345)"/>
        </g>
      </g>
      <g id="Group_21756" data-name="Group 21756" transform="translate(1.875)">
        <g id="Group_21755" data-name="Group 21755">
          <path id="Path_23766" data-name="Path 23766" d="M64.7,85.747l-1.3-1.676a.661.661,0,0,0-.523-.256H58.068V79.183a.662.662,0,0,0-.662-.662H46.377a.662.662,0,1,0,0,1.324H56.744v4.632a.662.662,0,0,0,.662.662h5.147l.964,1.241v3.413H61.686a.662.662,0,0,0,0,1.323h2.493a.662.662,0,0,0,.662-.662v-4.3A.663.663,0,0,0,64.7,85.747Z" transform="translate(-45.715 -78.521)"/>
        </g>
      </g>
      <g id="Group_21758" data-name="Group 21758" transform="translate(1.081 7.919)">
        <g id="Group_21757" data-name="Group 21757">
          <path id="Path_23767" data-name="Path 23767" d="M30.059,271.6H27.015a.662.662,0,0,0,0,1.324h3.044a.662.662,0,0,0,0-1.324Z" transform="translate(-26.353 -271.597)"/>
        </g>
      </g>
      <g id="Group_21760" data-name="Group 21760" transform="translate(0 5.316)">
        <g id="Group_21759" data-name="Group 21759">
          <path id="Path_23768" data-name="Path 23768" d="M6.309,208.134H.662a.662.662,0,0,0,0,1.324H6.309a.662.662,0,0,0,0-1.324Z" transform="translate(0 -208.134)"/>
        </g>
      </g>
      <g id="Group_21762" data-name="Group 21762" transform="translate(1.081 2.713)">
        <g id="Group_21761" data-name="Group 21761">
          <path id="Path_23769" data-name="Path 23769" d="M32.662,144.672H27.015a.662.662,0,1,0,0,1.323h5.647a.662.662,0,0,0,0-1.323Z" transform="translate(-26.353 -144.672)"/>
        </g>
      </g>
    </g>
  </g>
</svg>
