<svg xmlns="http://www.w3.org/2000/svg" width="16" height="16" viewBox="0 0 16 16">
  <g id="Group_23264" data-name="Group 23264" transform="translate(-732 -3722)">
    <rect id="Rectangle_10685" data-name="Rectangle 10685" width="16" height="16" transform="translate(732 3722)" fill="none"/>
    <g id="user_6_" data-name="user (6)" transform="translate(702.848 3723)">
      <g id="Group_23266" data-name="Group 23266" transform="translate(33.461)">
        <g id="Group_23265" data-name="Group 23265">
          <path id="Path_24338" data-name="Path 24338" d="M124.691,0a3.691,3.691,0,1,0,3.691,3.691A3.7,3.7,0,0,0,124.691,0Z" transform="translate(-121)" fill="#fff"/>
        </g>
      </g>
      <g id="Group_23268" data-name="Group 23268" transform="translate(31 8.203)">
        <g id="Group_23267" data-name="Group 23267">
          <path id="Path_24339" data-name="Path 24339" d="M41.745,301.591A5.262,5.262,0,0,0,37.973,300H36.332a5.262,5.262,0,0,0-3.773,1.591,5.38,5.38,0,0,0-1.56,3.8.41.41,0,0,0,.41.41H42.895a.41.41,0,0,0,.41-.41A5.38,5.38,0,0,0,41.745,301.591Z" transform="translate(-31 -300)" fill="#fff"/>
        </g>
      </g>
    </g>
  </g>
</svg>
